<svg width="25" height="27" viewBox="0 0 25 27" fill="none" xmlns="http://www.w3.org/2000/svg">
<path d="M8.04816 26.0338C7.46814 26.0338 6.97932 25.835 6.58172 25.4374C6.18434 25.0398 5.98566 24.5511 5.98566 23.9713C5.98566 23.3913 6.18434 22.9025 6.58172 22.5049C6.97932 22.1075 7.46814 21.9088 8.04816 21.9088C8.62818 21.9088 9.11687 22.1075 9.51425 22.5049C9.91185 22.9025 10.1107 23.3913 10.1107 23.9713C10.1107 24.5511 9.91185 25.0398 9.51425 25.4374C9.11687 25.835 8.62818 26.0338 8.04816 26.0338ZM20.9518 26.0338C20.3718 26.0338 19.8831 25.835 19.4858 25.4374C19.0881 25.0398 18.8893 24.5511 18.8893 23.9713C18.8893 23.3913 19.0881 22.9025 19.4858 22.5049C19.8831 22.1075 20.3718 21.9088 20.9518 21.9088C21.5319 21.9088 22.0207 22.1075 22.4183 22.5049C22.8157 22.9025 23.0143 23.3913 23.0143 23.9713C23.0143 24.5511 22.8157 25.0398 22.4183 25.4374C22.0207 25.835 21.5319 26.0338 20.9518 26.0338ZM6.08603 4.5625L9.75625 12.2838H18.8787C19.0375 12.2838 19.1786 12.2441 19.3018 12.1645C19.4254 12.0852 19.5311 11.9751 19.6191 11.8342L23.2154 5.30294C23.3211 5.10906 23.3299 4.93719 23.2419 4.78731C23.1537 4.63744 23.0038 4.5625 22.7923 4.5625H6.08603ZM5.41434 3.1875H23.3158C23.9135 3.1875 24.363 3.43122 24.6643 3.91866C24.9659 4.40609 24.9819 4.90808 24.7121 5.42463L20.7827 12.5849C20.5836 12.92 20.3248 13.1827 20.0065 13.3732C19.6884 13.5636 19.339 13.6588 18.9581 13.6588H9.1375L7.46619 16.7261C7.32525 16.9376 7.3209 17.1668 7.45312 17.4136C7.58535 17.6604 7.7837 17.7838 8.04816 17.7838H23.0143V19.1588H8.04816C7.24607 19.1588 6.6476 18.8208 6.25275 18.1448C5.8579 17.4687 5.84816 16.7896 6.22353 16.1073L8.29119 12.4213L3.23566 1.8125H0.75V0.4375H4.10809L5.41434 3.1875Z" fill="#222222"/>
</svg>
