<?xml version="1.0" encoding="UTF-8"?>
<svg id="_レイヤー_1" data-name="レイヤー 1" xmlns="http://www.w3.org/2000/svg" version="1.1" viewBox="0 0 25 27">
  <defs>
    <style>
      .cls-1 {
        fill: #222;
        stroke-width: 0px;
      }
    </style>
  </defs>
  <path class="cls-1" d="M8,26c-.6,0-1.1-.2-1.5-.6-.4-.4-.6-.9-.6-1.5s.2-1.1.6-1.5c.4-.4.9-.6,1.5-.6s1.1.2,1.5.6c.4.4.6.9.6,1.5s-.2,1.1-.6,1.5c-.4.4-.9.6-1.5.6ZM21,26c-.6,0-1.1-.2-1.5-.6-.4-.4-.6-.9-.6-1.5s.2-1.1.6-1.5.9-.6,1.5-.6,1.1.2,1.5.6c.4.4.6.9.6,1.5s-.2,1.1-.6,1.5c-.4.4-.9.6-1.5.6ZM6.1,4.6l3.7,7.7h9.1c.2,0,.3,0,.4-.1.1,0,.2-.2.3-.3l3.6-6.5c.1-.2.1-.4,0-.5,0-.1-.2-.2-.4-.2H6.1ZM5.4,3.2h17.9c.6,0,1,.2,1.3.7.3.5.3,1,0,1.5l-3.9,7.2c-.2.3-.5.6-.8.8-.3.2-.7.3-1,.3h-9.8l-1.7,3.1c-.1.2-.1.4,0,.7.1.2.3.4.6.4h15v1.4h-15c-.8,0-1.4-.3-1.8-1-.4-.7-.4-1.4,0-2l2.1-3.7L3.2,1.8H.8V.4h3.4l1.3,2.8Z"/>
</svg>