<svg width="20" height="20" viewBox="0 0 20 20" fill="none" xmlns="http://www.w3.org/2000/svg">
<path d="M9.99996 17.5834C8.95621 17.5834 7.97357 17.3858 7.05204 16.9905C6.13051 16.5952 5.32524 16.053 4.63621 15.3638C3.94704 14.6748 3.40482 13.8695 3.00954 12.948C2.61427 12.0265 2.41663 11.0438 2.41663 10.0001C2.41663 8.94772 2.61427 7.96293 3.00954 7.04571C3.40482 6.12848 3.94704 5.32536 4.63621 4.63633C5.32524 3.94716 6.13051 3.40494 7.05204 3.00967C7.97357 2.61439 8.95621 2.41675 9.99996 2.41675C11.0523 2.41675 12.0371 2.61439 12.9543 3.00967C13.8716 3.40494 14.6747 3.94716 15.3637 4.63633C16.0529 5.32536 16.5951 6.12848 16.9904 7.04571C17.3857 7.96293 17.5833 8.94772 17.5833 10.0001C17.5833 11.0438 17.3857 12.0265 16.9904 12.948C16.5951 13.8695 16.0529 14.6748 15.3637 15.3638C14.6747 16.053 13.8716 16.5952 12.9543 16.9905C12.0371 17.3858 11.0523 17.5834 9.99996 17.5834ZM9.99996 16.4615C10.3002 16.1614 10.5818 15.6724 10.8445 14.9945C11.1073 14.3165 11.3093 13.5609 11.4504 12.7276H8.54954C8.70135 13.5823 8.906 14.3486 9.1635 15.0265C9.42086 15.7045 9.69968 16.1828 9.99996 16.4615ZM8.65704 16.3574C8.39315 15.9407 8.15489 15.4162 7.94225 14.7838C7.72961 14.1513 7.5667 13.4659 7.4535 12.7276H4.10579C4.54593 13.6902 5.16746 14.4902 5.97038 15.1276C6.77329 15.7648 7.66885 16.1747 8.65704 16.3574ZM11.3429 16.3574C12.3311 16.1747 13.2266 15.7648 14.0295 15.1276C14.8325 14.4902 15.454 13.6902 15.8941 12.7276H12.5464C12.4064 13.4712 12.2301 14.1592 12.0175 14.7917C11.805 15.4242 11.5801 15.9461 11.3429 16.3574ZM3.72746 11.6442H7.34621C7.30774 11.3484 7.28364 11.0586 7.27392 10.7749C7.26433 10.4913 7.25954 10.2191 7.25954 9.95842C7.25954 9.69772 7.26433 9.43251 7.27392 9.16279C7.28364 8.89293 7.30774 8.62397 7.34621 8.35592H3.72746C3.64732 8.62508 3.5894 8.89855 3.55371 9.17633C3.51788 9.45411 3.49996 9.72869 3.49996 10.0001C3.49996 10.2715 3.51788 10.5461 3.55371 10.8238C3.5894 11.1016 3.64732 11.3751 3.72746 11.6442ZM8.45017 11.6442H11.5498C11.5881 11.3345 11.6121 11.0474 11.6218 10.783C11.6314 10.5186 11.6362 10.2576 11.6362 10.0001C11.6362 9.74258 11.6314 9.47814 11.6218 9.20675C11.6121 8.93536 11.5881 8.65175 11.5498 8.35592H8.45017C8.41183 8.65175 8.38781 8.93536 8.37808 9.20675C8.3685 9.47814 8.36371 9.74258 8.36371 10.0001C8.36371 10.2576 8.3685 10.522 8.37808 10.7934C8.38781 11.0648 8.41183 11.3484 8.45017 11.6442ZM12.6537 11.6442H16.2725C16.3526 11.3751 16.4105 11.1016 16.4462 10.8238C16.482 10.5461 16.5 10.2715 16.5 10.0001C16.5 9.72869 16.482 9.45064 16.4462 9.16592C16.4105 8.88119 16.3526 8.61119 16.2725 8.35592H12.6537C12.6922 8.65175 12.7163 8.94154 12.726 9.22529C12.7356 9.5089 12.7404 9.78105 12.7404 10.0417C12.7404 10.3024 12.7356 10.5677 12.726 10.8374C12.7163 11.1072 12.6922 11.3762 12.6537 11.6442ZM12.5464 7.27258H15.8941C15.4487 6.29925 14.8312 5.49925 14.0416 4.87258C13.252 4.24605 12.3525 3.83342 11.3429 3.63467C11.6068 4.078 11.8423 4.61196 12.0495 5.23654C12.2569 5.86098 12.4225 6.53967 12.5464 7.27258ZM8.54954 7.27258H11.4504C11.2986 6.42314 11.09 5.65279 10.8245 4.96154C10.559 4.27029 10.2841 3.79598 9.99996 3.53862C9.71579 3.79598 9.44093 4.27029 9.17538 4.96154C8.90996 5.65279 8.70135 6.42314 8.54954 7.27258ZM4.10579 7.27258H7.4535C7.57739 6.53967 7.74301 5.86098 7.95038 5.23654C8.1576 4.61196 8.39315 4.078 8.65704 3.63467C7.64204 3.83342 6.74114 4.24744 5.95433 4.87675C5.16739 5.50592 4.55121 6.30453 4.10579 7.27258Z" fill="white"/>
</svg>
