<svg width="16" height="16" viewBox="0 0 16 16" fill="none" xmlns="http://www.w3.org/2000/svg">
<path d="M7.99999 15.5834C6.95624 15.5834 5.9736 15.3858 5.05207 14.9905C4.13055 14.5952 3.32527 14.053 2.63624 13.3638C1.94707 12.6748 1.40485 11.8695 1.00957 10.948C0.614296 10.0265 0.416656 9.04383 0.416656 8.00008C0.416656 6.94772 0.614296 5.96293 1.00957 5.04571C1.40485 4.12848 1.94707 3.32536 2.63624 2.63633C3.32527 1.94716 4.13055 1.40494 5.05207 1.00967C5.9736 0.614387 6.95624 0.416748 7.99999 0.416748C9.05235 0.416748 10.0371 0.614387 10.9544 1.00967C11.8716 1.40494 12.6747 1.94716 13.3637 2.63633C14.0529 3.32536 14.5951 4.12848 14.9904 5.04571C15.3857 5.96293 15.5833 6.94772 15.5833 8.00008C15.5833 9.04383 15.3857 10.0265 14.9904 10.948C14.5951 11.8695 14.0529 12.6748 13.3637 13.3638C12.6747 14.053 11.8716 14.5952 10.9544 14.9905C10.0371 15.3858 9.05235 15.5834 7.99999 15.5834ZM7.99999 14.4615C8.30027 14.1614 8.58179 13.6724 8.84457 12.9945C9.10735 12.3165 9.3093 11.5609 9.45041 10.7276H6.54957C6.70138 11.5823 6.90603 12.3486 7.16353 13.0265C7.42089 13.7045 7.69971 14.1828 7.99999 14.4615ZM6.65707 14.3574C6.39318 13.9407 6.15492 13.4162 5.94228 12.7838C5.72964 12.1513 5.56673 11.4659 5.45353 10.7276H2.10582C2.54596 11.6902 3.16749 12.4902 3.97041 13.1276C4.77332 13.7648 5.66888 14.1747 6.65707 14.3574ZM9.34291 14.3574C10.3311 14.1747 11.2267 13.7648 12.0296 13.1276C12.8325 12.4902 13.454 11.6902 13.8942 10.7276H10.5464C10.4064 11.4712 10.2301 12.1592 10.0175 12.7917C9.80499 13.4242 9.58013 13.9461 9.34291 14.3574ZM1.72749 9.64425H5.34624C5.30777 9.34842 5.28367 9.05862 5.27395 8.77487C5.26436 8.49126 5.25957 8.21911 5.25957 7.95842C5.25957 7.69772 5.26436 7.43251 5.27395 7.16279C5.28367 6.89293 5.30777 6.62397 5.34624 6.35592H1.72749C1.64735 6.62508 1.58943 6.89855 1.55374 7.17633C1.51791 7.45411 1.49999 7.72869 1.49999 8.00008C1.49999 8.27147 1.51791 8.54605 1.55374 8.82383C1.58943 9.10161 1.64735 9.37508 1.72749 9.64425ZM6.4502 9.64425H9.54978C9.58812 9.33453 9.61214 9.04744 9.62186 8.783C9.63145 8.51855 9.63624 8.25758 9.63624 8.00008C9.63624 7.74258 9.63145 7.47814 9.62186 7.20675C9.61214 6.93536 9.58812 6.65175 9.54978 6.35592H6.4502C6.41186 6.65175 6.38784 6.93536 6.37811 7.20675C6.36853 7.47814 6.36374 7.74258 6.36374 8.00008C6.36374 8.25758 6.36853 8.52203 6.37811 8.79342C6.38784 9.0648 6.41186 9.34842 6.4502 9.64425ZM10.6537 9.64425H14.2725C14.3526 9.37508 14.4105 9.10161 14.4462 8.82383C14.4821 8.54605 14.5 8.27147 14.5 8.00008C14.5 7.72869 14.4821 7.45064 14.4462 7.16592C14.4105 6.88119 14.3526 6.61119 14.2725 6.35592H10.6537C10.6922 6.65175 10.7163 6.94154 10.726 7.22529C10.7356 7.5089 10.7404 7.78105 10.7404 8.04175C10.7404 8.30244 10.7356 8.56765 10.726 8.83737C10.7163 9.10723 10.6922 9.37619 10.6537 9.64425ZM10.5464 5.27258H13.8942C13.4487 4.29925 12.8312 3.49925 12.0417 2.87258C11.2521 2.24605 10.3525 1.83342 9.34291 1.63467C9.6068 2.078 9.84235 2.61196 10.0496 3.23654C10.2569 3.86098 10.4226 4.53967 10.5464 5.27258ZM6.54957 5.27258H9.45041C9.2986 4.42314 9.08999 3.65279 8.82457 2.96154C8.55902 2.27029 8.28416 1.79598 7.99999 1.53862C7.71582 1.79598 7.44096 2.27029 7.17541 2.96154C6.90999 3.65279 6.70138 4.42314 6.54957 5.27258ZM2.10582 5.27258H5.45353C5.57742 4.53967 5.74305 3.86098 5.95041 3.23654C6.15763 2.61196 6.39318 2.078 6.65707 1.63467C5.64207 1.83342 4.74117 2.24744 3.95436 2.87675C3.16742 3.50592 2.55124 4.30453 2.10582 5.27258Z" fill="#222222"/>
</svg>
