<svg width="26" height="24" viewBox="0 0 26 24" fill="none" xmlns="http://www.w3.org/2000/svg">
<path d="M13 10.9229C11.5562 10.9229 10.3203 10.4088 9.29219 9.38066C8.26406 8.35254 7.75 7.1166 7.75 5.67285C7.75 4.2291 8.26406 2.99316 9.29219 1.96504C10.3203 0.936914 11.5562 0.422852 13 0.422852C14.4437 0.422852 15.6797 0.936914 16.7078 1.96504C17.7359 2.99316 18.25 4.2291 18.25 5.67285C18.25 7.1166 17.7359 8.35254 16.7078 9.38066C15.6797 10.4088 14.4437 10.9229 13 10.9229ZM0.75 23.5771V20.6962C0.75 19.9737 0.960292 19.2978 1.38087 18.6684C1.80175 18.0392 2.36773 17.5507 3.07881 17.2027C4.73023 16.4109 6.38267 15.8169 8.03613 15.4208C9.68958 15.025 11.3442 14.8271 13 14.8271C14.6558 14.8271 16.3104 15.025 17.9639 15.4208C19.6173 15.8169 21.2698 16.4109 22.9212 17.2027C23.6323 17.5507 24.1982 18.0392 24.6191 18.6684C25.0397 19.2978 25.25 19.9737 25.25 20.6962V23.5771H0.75ZM2.5 21.8271H23.5V20.6962C23.5 20.308 23.3749 19.9434 23.1246 19.6024C22.8747 19.2615 22.5286 18.9731 22.0864 18.7375C20.6462 18.0398 19.1612 17.5053 17.6314 17.134C16.1016 16.7627 14.5578 16.5771 13 16.5771C11.4422 16.5771 9.89842 16.7627 8.36863 17.134C6.83883 17.5053 5.35381 18.0398 3.91356 18.7375C3.4714 18.9731 3.12533 19.2615 2.87538 19.6024C2.62513 19.9434 2.5 20.308 2.5 20.6962V21.8271ZM13 9.17285C13.9625 9.17285 14.7865 8.83014 15.4719 8.14473C16.1573 7.45931 16.5 6.63535 16.5 5.67285C16.5 4.71035 16.1573 3.88639 15.4719 3.20098C14.7865 2.51556 13.9625 2.17285 13 2.17285C12.0375 2.17285 11.2135 2.51556 10.5281 3.20098C9.84271 3.88639 9.5 4.71035 9.5 5.67285C9.5 6.63535 9.84271 7.45931 10.5281 8.14473C11.2135 8.83014 12.0375 9.17285 13 9.17285Z" fill="#222222"/>
</svg>
