<?xml version="1.0" encoding="UTF-8"?>
<svg id="_レイヤー_1" data-name=" レイヤー 1" xmlns="http://www.w3.org/2000/svg" version="1.1" viewBox="0 0 42 42">
  <defs>
    <style>
      .cls-1 {
        fill: #222;
        stroke-width: 0px;
      }
    </style>
  </defs>
  <path class="cls-1" d="M20.8,19c-2.4,0-4.6-.9-6.3-2.6s-2.6-3.9-2.6-6.3.9-4.6,2.6-6.3,3.9-2.6,6.3-2.6,4.6.9,6.3,2.6,2.6,3.9,2.6,6.3-.9,4.6-2.6,6.3-3.9,2.6-6.3,2.6ZM0,40.7v-5c0-1.2.3-2.4,1-3.4.7-1,1.7-1.9,2.9-2.6,2.9-1.4,5.6-2.4,8.5-3.1,2.9-.7,5.6-1,8.5-1s5.6.3,8.5,1,5.6,1.7,8.5,3.1c1.2.5,2.2,1.4,2.9,2.6.7,1,1,2.2,1,3.4v5H0ZM2.9,37.6h35.9v-1.9c0-.7-.2-1.4-.7-1.9-.3-.5-1-1-1.7-1.5-2.4-1.2-5-2-7.7-2.7-2.6-.7-5.3-1-7.9-1s-5.3.3-7.9,1-5.1,1.5-7.7,2.7c-.7.3-1.4.9-1.7,1.5-.5.5-.7,1.2-.7,1.9v1.9ZM20.8,16.1c1.7,0,3.1-.5,4.3-1.7s1.7-2.6,1.7-4.3-.5-3.1-1.7-4.3-2.6-1.7-4.3-1.7-3.1.5-4.3,1.7-1.7,2.6-1.7,4.3.5,3.1,1.7,4.3,2.6,1.7,4.3,1.7Z"/>
</svg>