<svg width="24" height="17" viewBox="0 0 24 17" fill="none" xmlns="http://www.w3.org/2000/svg">
<g clip-path="url(#clip0_158_27)">
<path d="M23.4987 2.65524C23.224 1.61095 22.4107 0.787937 21.376 0.507302C19.504 0 12 0 12 0C12 0 4.496 0 2.624 0.507302C1.592 0.787937 0.778667 1.60825 0.501333 2.65524C0 4.54952 0 8.5 0 8.5C0 8.5 0 12.4505 0.501333 14.3448C0.776 15.389 1.58933 16.2121 2.624 16.4927C4.496 17 12 17 12 17C12 17 19.504 17 21.376 16.4927C22.408 16.2121 23.2213 15.3917 23.4987 14.3448C24 12.4505 24 8.5 24 8.5C24 8.5 24 4.54952 23.4987 2.65524ZM9.6 12.1429V4.85714L15.8347 8.5L9.6 12.1429Z" fill="white"/>
</g>
<defs>
<clipPath id="clip0_158_27">
<rect width="24" height="17" fill="white"/>
</clipPath>
</defs>
</svg>
