<?xml version="1.0" encoding="UTF-8"?>
<svg id="_レイヤー_1" data-name="レイヤー 1" xmlns="http://www.w3.org/2000/svg" xmlns:xlink="http://www.w3.org/1999/xlink" version="1.1" viewBox="0 0 21 22">
  <defs>
    <style>
      .cls-1 {
        clip-path: url(#clippath);
      }

      .cls-2 {
        fill: none;
      }

      .cls-2, .cls-3 {
        stroke-width: 0px;
      }

      .cls-3 {
        fill: #fff;
      }
    </style>
    <clipPath id="clippath">
      <rect class="cls-2" width="21" height="22"/>
    </clipPath>
  </defs>
  <g class="cls-1">
    <g>
      <path class="cls-3" d="M19.5,19.8l-7-10.5-.8-1.2L6.6.6l-.4-.6H0l1.5,2.2,6.7,10,.8,1.2,5.4,8,.4.6h6.2l-1.5-2.2h0ZM15.6,20.6l-5.6-8.3-.8-1.2L2.7,1.4h2.8l5.2,7.8.8,1.2,6.8,10.2h-2.8Z"/>
      <path class="cls-3" d="M9.2,11.1l.8,1.2-.9,1.1L1.8,22H0l8.2-9.8.9-1.1Z"/>
      <path class="cls-3" d="M20.3,0l-7.8,9.3-.9,1.1-.8-1.2.9-1.1,5.3-6.3,1.5-1.8h1.8Z"/>
    </g>
  </g>
</svg>