<?xml version="1.0" encoding="UTF-8"?>
<svg id="_レイヤー_1" data-name="レイヤー 1" xmlns="http://www.w3.org/2000/svg" version="1.1" viewBox="0 0 21 22">
  <defs>
    <style>
      .cls-1 {
        fill: #111;
        stroke-width: 0px;
      }
    </style>
  </defs>
  <path class="cls-1" d="M10.5,2c2.8,0,3.1,0,4.2,0,1,0,1.6.2,1.9.4.5.2.8.4,1.2.8.4.4.6.8.8,1.3.1.4.3,1,.4,2,0,1.2,0,1.5,0,4.4s0,3.3,0,4.4c0,1.1-.2,1.7-.4,2-.2.5-.4.9-.8,1.3-.4.4-.7.6-1.2.8-.4.2-.9.3-1.9.4-1.1,0-1.4,0-4.2,0s-3.1,0-4.2,0c-1,0-1.6-.2-1.9-.4-.5-.2-.8-.4-1.2-.8-.4-.4-.6-.8-.8-1.3-.1-.4-.3-1-.4-2,0-1.2,0-1.5,0-4.4s0-3.3,0-4.4c0-1.1.2-1.7.4-2,.2-.5.4-.9.8-1.3.4-.4.7-.6,1.2-.8.4-.2.9-.3,1.9-.4,1.1,0,1.4,0,4.2,0ZM10.5,0c-2.9,0-3.2,0-4.3,0-1.1,0-1.9.2-2.5.5-.7.3-1.3.7-1.9,1.3-.6.6-.9,1.2-1.2,1.9-.3.7-.4,1.5-.5,2.7C0,7.6,0,8,0,11s0,3.4,0,4.5c0,1.2.2,2,.5,2.7.3.7.6,1.3,1.2,1.9.6.6,1.2,1,1.9,1.3.7.3,1.4.5,2.5.5,1.1,0,1.5,0,4.3,0s3.2,0,4.3,0c1.1,0,1.9-.2,2.5-.5.7-.3,1.3-.7,1.9-1.3.6-.6.9-1.2,1.2-1.9.3-.7.4-1.5.5-2.7,0-1.2,0-1.5,0-4.5s0-3.4,0-4.5c0-1.2-.2-2-.5-2.7-.3-.7-.6-1.3-1.2-1.9-.6-.6-1.2-1-1.9-1.3-.7-.3-1.4-.5-2.5-.5-1.1,0-1.5,0-4.3,0Z"/>
  <path class="cls-1" d="M10.5,5.4c-3,0-5.4,2.5-5.4,5.6s2.4,5.6,5.4,5.6,5.4-2.5,5.4-5.6-2.4-5.6-5.4-5.6ZM10.5,14.7c-1.9,0-3.5-1.6-3.5-3.7s1.6-3.7,3.5-3.7,3.5,1.6,3.5,3.7-1.6,3.7-3.5,3.7Z"/>
  <path class="cls-1" d="M16.1,6.4c.7,0,1.3-.6,1.3-1.3s-.6-1.3-1.3-1.3-1.3.6-1.3,1.3.6,1.3,1.3,1.3Z"/>
</svg>