<svg width="21" height="22" viewBox="0 0 21 22" fill="none" xmlns="http://www.w3.org/2000/svg">
<g clip-path="url(#clip0_158_23)">
<path d="M10.4997 1.98259C13.3038 1.98259 13.6348 1.99294 14.7417 2.04729C15.7645 2.09647 16.3204 2.27506 16.691 2.42518C17.1801 2.62447 17.531 2.86259 17.8991 3.24824C18.2672 3.63388 18.4945 3.99882 18.6847 4.51388C18.828 4.90212 18.9985 5.48447 19.0454 6.556C19.0948 7.71553 19.1072 8.06494 19.1072 11C19.1072 13.9351 19.0973 14.2845 19.0454 15.444C18.9985 16.5155 18.828 17.0979 18.6847 17.4861C18.4945 17.9986 18.2672 18.3661 17.8991 18.7518C17.531 19.1374 17.1826 19.3755 16.691 19.5748C16.3204 19.7249 15.7645 19.9035 14.7417 19.9527C13.6348 20.0045 13.3038 20.0174 10.4997 20.0174C7.69554 20.0174 7.36449 20.0071 6.25766 19.9527C5.23484 19.9035 4.67896 19.7249 4.30837 19.5748C3.81919 19.3755 3.46837 19.1374 3.10025 18.7518C2.73213 18.3661 2.50484 18.0012 2.3146 17.4861C2.17131 17.0979 2.00084 16.5155 1.9539 15.444C1.90449 14.2845 1.89213 13.9351 1.89213 11C1.89213 8.06494 1.90202 7.71553 1.9539 6.556C2.00084 5.48447 2.17131 4.90212 2.3146 4.51388C2.50484 4.00141 2.73213 3.63388 3.10025 3.24824C3.46837 2.86259 3.81672 2.62447 4.30837 2.42518C4.67896 2.27506 5.23484 2.09647 6.25766 2.04729C7.36449 1.99553 7.69802 1.98259 10.4997 1.98259ZM10.4997 0C7.6486 0 7.29037 0.0129412 6.17119 0.0672941C5.05449 0.121647 4.29107 0.305412 3.62155 0.579765C2.93225 0.861882 2.34672 1.23718 1.76119 1.848C1.17813 2.45882 0.817428 3.07224 0.550604 3.79694C0.291192 4.49577 0.11331 5.29553 0.0614277 6.468C0.00954532 7.64047 -0.00280762 8.01577 -0.00280762 11.0026C-0.00280762 13.9894 0.00954532 14.3647 0.0614277 15.5372C0.11331 16.7071 0.288722 17.5068 0.550604 18.2082C0.819898 18.9304 1.17813 19.5438 1.76119 20.1572C2.34425 20.768 2.92978 21.1459 3.62155 21.4254C4.2886 21.6972 5.05202 21.8835 6.17119 21.9379C7.29037 21.9922 7.6486 22.0052 10.4997 22.0052C13.3507 22.0052 13.709 21.9922 14.8281 21.9379C15.9448 21.8835 16.7083 21.6998 17.3778 21.4254C18.0671 21.1433 18.6526 20.768 19.2381 20.1572C19.8212 19.5464 20.1819 18.9329 20.4487 18.2082C20.7081 17.5094 20.886 16.7096 20.9379 15.5372C20.9898 14.3647 21.0021 13.9894 21.0021 11.0026C21.0021 8.01577 20.9898 7.64047 20.9379 6.468C20.886 5.29812 20.7106 4.49835 20.4487 3.79694C20.1794 3.07482 19.8212 2.46141 19.2381 1.848C18.6551 1.23718 18.0695 0.859294 17.3778 0.579765C16.7107 0.308 15.9473 0.121647 14.8281 0.0672941C13.709 0.0129412 13.3507 0 10.4997 0Z" fill="white"/>
<path d="M10.5 5.35248C7.5229 5.35248 5.10913 7.88118 5.10913 11C5.10913 14.1188 7.5229 16.6475 10.5 16.6475C13.477 16.6475 15.8908 14.1188 15.8908 11C15.8908 7.88118 13.477 5.35248 10.5 5.35248ZM10.5 14.6675C8.56795 14.6675 6.99913 13.0266 6.99913 11C6.99913 8.97342 8.56548 7.33248 10.5 7.33248C12.4344 7.33248 14.0008 8.97342 14.0008 11C14.0008 13.0266 12.4344 14.6675 10.5 14.6675Z" fill="white"/>
<path d="M16.1058 6.4473C16.8017 6.4473 17.3658 5.85631 17.3658 5.1273C17.3658 4.39828 16.8017 3.8073 16.1058 3.8073C15.4099 3.8073 14.8458 4.39828 14.8458 5.1273C14.8458 5.85631 15.4099 6.4473 16.1058 6.4473Z" fill="white"/>
</g>
<defs>
<clipPath id="clip0_158_23">
<rect width="21" height="22" fill="white"/>
</clipPath>
</defs>
</svg>
