<?xml version="1.0" encoding="UTF-8"?>
<svg id="_レイヤー_1" data-name="レイヤー 1" xmlns="http://www.w3.org/2000/svg" version="1.1" viewBox="0 0 24 17">
  <defs>
    <style>
      .cls-1 {
        fill: #111;
        stroke-width: 0px;
      }
    </style>
  </defs>
  <path class="cls-1" d="M23.5,2.7c-.3-1-1.1-1.9-2.1-2.1-1.9-.5-9.4-.5-9.4-.5,0,0-7.5,0-9.4.5C1.6.8.8,1.6.5,2.7c-.5,1.9-.5,5.8-.5,5.8,0,0,0,4,.5,5.8.3,1,1.1,1.9,2.1,2.1,1.9.5,9.4.5,9.4.5,0,0,7.5,0,9.4-.5,1-.3,1.8-1.1,2.1-2.1.5-1.9.5-5.8.5-5.8,0,0,0-4-.5-5.8ZM9.6,12.1v-7.3l6.2,3.6-6.2,3.6Z"/>
</svg>